<?xml version="1.0" encoding="utf-8"?>
<!-- Generator: Adobe Illustrator 19.1.1, SVG Export Plug-In . SVG Version: 6.00 Build 0)  -->
<svg version="1.1" id="Layer_1" xmlns="http://www.w3.org/2000/svg" xmlns:xlink="http://www.w3.org/1999/xlink" x="0px" y="0px"
	 viewBox="0 0 48 48" style="enable-background:new 0 0 48 48;" xml:space="preserve">
<style type="text/css">
	.st0{fill:#EEEEEE;}
</style>
<g>
	<path class="st0" d="M35.3,19.1c-0.1-0.3-0.3-0.4-0.6-0.5l-8.2-1.2L30.3,9c0.1-0.2,0.1-0.5-0.1-0.7C30.1,8.1,29.8,8,29.6,8h-7.8
		c-0.4,0-1.2,0.1-1.2,0.5l-3.6,15.1c0,0.4,0.3,0.7,0.6,0.7l5.7,0.8l-7.6,13.7c-0.2,0.3-0.1,0.7,0.2,0.9c0.1,0.1,0.3,0.1,0.4,0.1
		c0.2,0,0.4-0.1,0.5-0.2l18.3-20C35.3,19.6,35.4,19.3,35.3,19.1z"/>
</g>
</svg>

