<?xml version="1.0" encoding="utf-8"?>
<!-- Generator: Adobe Illustrator 19.1.1, SVG Export Plug-In . SVG Version: 6.00 Build 0)  -->
<svg version="1.1" id="Layer_1" xmlns="http://www.w3.org/2000/svg" xmlns:xlink="http://www.w3.org/1999/xlink" x="0px" y="0px"
	 viewBox="0 0 48 48" style="enable-background:new 0 0 48 48;" xml:space="preserve">
<style type="text/css">
	.st0{fill:#EEEEEE;}
</style>
<g>
	<g>
		<path class="st0" d="M38.5,19.8h-11v-11c0-0.6-0.4-1-1-1h-6c-0.6,0-1,0.4-1,1v11h-11c-0.6,0-1,0.4-1,1v6c0,0.6,0.4,1,1,1h11v11
			c0,0.6,0.4,1,1,1h6c0.6,0,1-0.4,1-1v-11h11c0.6,0,1-0.4,1-1v-6C39.5,20.3,39.1,19.8,38.5,19.8z"/>
	</g>
	<g>
	</g>
	<g>
	</g>
	<g>
	</g>
	<g>
	</g>
	<g>
	</g>
	<g>
	</g>
	<g>
	</g>
	<g>
	</g>
	<g>
	</g>
	<g>
	</g>
	<g>
	</g>
	<g>
	</g>
	<g>
	</g>
	<g>
	</g>
	<g>
	</g>
</g>
</svg>
